<svg width="16" height="16" viewBox="0 0 16 16" fill="none" xmlns="http://www.w3.org/2000/svg">
<path d="M5.33331 3.83331C5.05998 3.83331 4.83331 3.60665 4.83331 3.33331V1.33331C4.83331 1.05998 5.05998 0.833313 5.33331 0.833313C5.60665 0.833313 5.83331 1.05998 5.83331 1.33331V3.33331C5.83331 3.60665 5.60665 3.83331 5.33331 3.83331Z" fill="#0FBA53"/>
<path d="M10.6667 3.83331C10.3934 3.83331 10.1667 3.60665 10.1667 3.33331V1.33331C10.1667 1.05998 10.3934 0.833313 10.6667 0.833313C10.94 0.833313 11.1667 1.05998 11.1667 1.33331V3.33331C11.1667 3.60665 10.94 3.83331 10.6667 3.83331Z" fill="#0FBA53"/>
<path d="M10 9.16669H4.66669C4.39335 9.16669 4.16669 8.94002 4.16669 8.66669C4.16669 8.39335 4.39335 8.16669 4.66669 8.16669H10C10.2734 8.16669 10.5 8.39335 10.5 8.66669C10.5 8.94002 10.2734 9.16669 10 9.16669Z" fill="#0FBA53"/>
<path d="M8.00002 11.8333H4.66669C4.39335 11.8333 4.16669 11.6066 4.16669 11.3333C4.16669 11.06 4.39335 10.8333 4.66669 10.8333H8.00002C8.27335 10.8333 8.50002 11.06 8.50002 11.3333C8.50002 11.6066 8.27335 11.8333 8.00002 11.8333Z" fill="#0FBA53"/>
<path d="M10 15.1666H6C2.25333 15.1666 1.5 13.4 1.5 10.5466V6.43331C1.5 3.27331 2.56667 1.98665 5.30667 1.83331H10.6667C10.6733 1.83331 10.6867 1.83331 10.6933 1.83331C13.4333 1.98665 14.5 3.27331 14.5 6.43331V10.5466C14.5 13.4 13.7467 15.1666 10 15.1666ZM5.33333 2.83331C3.46667 2.93998 2.5 3.52665 2.5 6.43331V10.5466C2.5 13.1 2.98667 14.1666 6 14.1666H10C13.0133 14.1666 13.5 13.1 13.5 10.5466V6.43331C13.5 3.53331 12.54 2.93998 10.6533 2.83331H5.33333Z" fill="#0FBA53"/>
</svg>
