<svg width="26" height="26" viewBox="0 0 26 26" fill="none" xmlns="http://www.w3.org/2000/svg">
<rect width="26" height="26" rx="5" fill="#D51D11"/>
<path d="M11.1133 15.3867C10.9867 15.3867 10.86 15.34 10.76 15.24C10.5667 15.0467 10.5667 14.7267 10.76 14.5333L14.5333 10.76C14.7267 10.5667 15.0467 10.5667 15.24 10.76C15.4333 10.9533 15.4333 11.2733 15.24 11.4667L11.4667 15.24C11.3733 15.34 11.24 15.3867 11.1133 15.3867Z" fill="white"/>
<path d="M14.8867 15.3867C14.76 15.3867 14.6333 15.34 14.5333 15.24L10.76 11.4667C10.5667 11.2733 10.5667 10.9533 10.76 10.76C10.9533 10.5667 11.2733 10.5667 11.4667 10.76L15.24 14.5333C15.4333 14.7267 15.4333 15.0467 15.24 15.24C15.14 15.34 15.0133 15.3867 14.8867 15.3867Z" fill="white"/>
<path d="M15 20.1666H11C7.38 20.1666 5.83333 18.62 5.83333 15V11C5.83333 7.37998 7.38 5.83331 11 5.83331H15C18.62 5.83331 20.1667 7.37998 20.1667 11V15C20.1667 18.62 18.62 20.1666 15 20.1666ZM11 6.83331C7.92667 6.83331 6.83333 7.92665 6.83333 11V15C6.83333 18.0733 7.92667 19.1666 11 19.1666H15C18.0733 19.1666 19.1667 18.0733 19.1667 15V11C19.1667 7.92665 18.0733 6.83331 15 6.83331H11Z" fill="white"/>
</svg>
