<svg width="16" height="16" viewBox="0 0 16 16" fill="none" xmlns="http://www.w3.org/2000/svg">
<path d="M6.37335 12.5C6.10002 12.5 5.87335 12.2734 5.87335 12V8.66669C5.87335 8.39335 6.10002 8.16669 6.37335 8.16669C6.64669 8.16669 6.87335 8.39335 6.87335 8.66669V12C6.87335 12.2734 6.64669 12.5 6.37335 12.5Z" />
<path d="M8.00002 10.8333H4.66669C4.39335 10.8333 4.16669 10.6066 4.16669 10.3333C4.16669 10.06 4.39335 9.83331 4.66669 9.83331H8.00002C8.27335 9.83331 8.50002 10.06 8.50002 10.3333C8.50002 10.6066 8.27335 10.8333 8.00002 10.8333Z" />
<path d="M5.33331 3.83331C5.05998 3.83331 4.83331 3.60665 4.83331 3.33331V1.33331C4.83331 1.05998 5.05998 0.833313 5.33331 0.833313C5.60665 0.833313 5.83331 1.05998 5.83331 1.33331V3.33331C5.83331 3.60665 5.60665 3.83331 5.33331 3.83331Z" />
<path d="M10.6667 3.83331C10.3934 3.83331 10.1667 3.60665 10.1667 3.33331V1.33331C10.1667 1.05998 10.3934 0.833313 10.6667 0.833313C10.94 0.833313 11.1667 1.05998 11.1667 1.33331V3.33331C11.1667 3.60665 10.94 3.83331 10.6667 3.83331Z" />
<path d="M5.90001 15.2067C4.25334 15.2067 3.16668 14.8467 2.48668 14.0733C1.70001 13.1867 1.57334 11.86 1.54668 10.68L1.46001 6.56668C1.39334 3.41335 2.44001 2.10002 5.17334 1.89335L10.5333 1.78668C10.5467 1.78668 10.5533 1.78668 10.56 1.78668C13.3 1.88002 14.3933 3.14668 14.46 6.30668L14.54 10.42C14.5667 11.6 14.4867 12.9333 13.74 13.8467C13.06 14.68 11.9133 15.0867 10.1333 15.1267L6.13334 15.2067C6.05334 15.2067 5.97334 15.2067 5.90001 15.2067ZM10.5333 2.78002L5.22001 2.88668C3.35334 3.03335 2.40001 3.63335 2.46001 6.54668L2.54668 10.66C2.57334 12.0733 2.78001 12.9 3.23334 13.4133C3.74001 13.9867 4.65334 14.24 6.12001 14.2067L10.12 14.1267C11.58 14.1 12.4867 13.8067 12.9733 13.2133C13.4067 12.6867 13.58 11.8533 13.5467 10.44L13.4667 6.32668C13.4 3.42001 12.4267 2.84668 10.5333 2.78002Z"/>
</svg>
