<svg width="16" height="16" viewBox="0 0 16 16" fill="none" xmlns="http://www.w3.org/2000/svg">
<path d="M9.99992 15.1666H5.99992C2.37992 15.1666 0.833252 13.62 0.833252 9.99998V5.99998C0.833252 2.37998 2.37992 0.833313 5.99992 0.833313H9.99992C13.6199 0.833313 15.1666 2.37998 15.1666 5.99998V9.99998C15.1666 13.62 13.6199 15.1666 9.99992 15.1666ZM5.99992 1.83331C2.92659 1.83331 1.83325 2.92665 1.83325 5.99998V9.99998C1.83325 13.0733 2.92659 14.1666 5.99992 14.1666H9.99992C13.0733 14.1666 14.1666 13.0733 14.1666 9.99998V5.99998C14.1666 2.92665 13.0733 1.83331 9.99992 1.83331H5.99992Z" />
<path d="M7.15995 10.8533C7.03329 10.8533 6.90662 10.8066 6.80662 10.7066C6.61329 10.5133 6.61329 10.1933 6.80662 9.99998L8.80662 7.99998L6.80662 5.99998C6.61329 5.80665 6.61329 5.48665 6.80662 5.29332C6.99995 5.09998 7.31995 5.09998 7.51329 5.29332L9.86662 7.64665C10.06 7.83998 10.06 8.15998 9.86662 8.35332L7.51329 10.7066C7.41329 10.8066 7.28662 10.8533 7.15995 10.8533Z" />
</svg>
