<svg width="26" height="26" viewBox="0 0 26 26" fill="none" xmlns="http://www.w3.org/2000/svg">
<path d="M15 20.1666H11C7.38 20.1666 5.83333 18.62 5.83333 15V11C5.83333 7.37998 7.38 5.83331 11 5.83331H12.3333C12.6067 5.83331 12.8333 6.05998 12.8333 6.33331C12.8333 6.60665 12.6067 6.83331 12.3333 6.83331H11C7.92667 6.83331 6.83333 7.92665 6.83333 11V15C6.83333 18.0733 7.92667 19.1666 11 19.1666H15C18.0733 19.1666 19.1667 18.0733 19.1667 15V13.6666C19.1667 13.3933 19.3933 13.1666 19.6667 13.1666C19.94 13.1666 20.1667 13.3933 20.1667 13.6666V15C20.1667 18.62 18.62 20.1666 15 20.1666Z" fill="white"/>
<path d="M10.6667 16.7933C10.26 16.7933 9.88667 16.6466 9.61333 16.38C9.28667 16.0533 9.14667 15.58 9.22 15.08L9.50667 13.0733C9.56 12.6866 9.81333 12.1866 10.0867 11.9133L15.34 6.65998C16.6667 5.33331 18.0133 5.33331 19.34 6.65998C20.0667 7.38664 20.3933 8.12664 20.3267 8.86664C20.2667 9.46665 19.9467 10.0533 19.34 10.6533L14.0867 15.9066C13.8133 16.18 13.3133 16.4333 12.9267 16.4866L10.92 16.7733C10.8333 16.7933 10.7467 16.7933 10.6667 16.7933ZM16.0467 7.36664L10.7933 12.62C10.6667 12.7466 10.52 13.04 10.4933 13.2133L10.2067 15.22C10.18 15.4133 10.22 15.5733 10.32 15.6733C10.42 15.7733 10.58 15.8133 10.7733 15.7866L12.78 15.5C12.9533 15.4733 13.2533 15.3266 13.3733 15.2L18.6267 9.94664C19.06 9.51331 19.2867 9.12664 19.32 8.76664C19.36 8.33331 19.1333 7.87331 18.6267 7.35998C17.56 6.29331 16.8267 6.59331 16.0467 7.36664Z" fill="white"/>
<path d="M18.2333 11.5533C18.1867 11.5533 18.14 11.5466 18.1 11.5333C16.3467 11.04 14.9533 9.64664 14.46 7.89331C14.3867 7.62664 14.54 7.35331 14.8067 7.27331C15.0733 7.19998 15.3467 7.35331 15.42 7.61998C15.82 9.03998 16.9467 10.1666 18.3667 10.5666C18.6333 10.64 18.7867 10.92 18.7133 11.1866C18.6533 11.4133 18.4533 11.5533 18.2333 11.5533Z" fill="white"/>
</svg>
